<svg xmlns="http://www.w3.org/2000/svg" xmlnsXlink="http://www.w3.org/1999/xlink" width="1366" zoomAndPan="magnify" viewBox="0 0 1024.5 176.249993" height="235" preserveAspectRatio="xMidYMid meet" version="1.0"><defs><g/><clipPath id="4da281b3d3"><path d="M 741.699219 2.417969 L 779.234375 2.417969 L 779.234375 39.953125 L 741.699219 39.953125 Z M 741.699219 2.417969 " clip-rule="nonzero"/></clipPath><clipPath id="293706aa79"><path d="M 760.46875 2.417969 C 750.101562 2.417969 741.699219 10.820312 741.699219 21.1875 C 741.699219 31.550781 750.101562 39.953125 760.46875 39.953125 C 770.832031 39.953125 779.234375 31.550781 779.234375 21.1875 C 779.234375 10.820312 770.832031 2.417969 760.46875 2.417969 Z M 760.46875 2.417969 " clip-rule="nonzero"/></clipPath><clipPath id="5f4aa8d30f"><path d="M 94.953125 68.433594 L 134.785156 68.433594 L 134.785156 108.269531 L 94.953125 108.269531 Z M 94.953125 68.433594 " clip-rule="nonzero"/></clipPath><clipPath id="3d31669760"><path d="M 114.867188 68.433594 C 103.867188 68.433594 94.953125 77.351562 94.953125 88.351562 C 94.953125 99.351562 103.867188 108.269531 114.867188 108.269531 C 125.867188 108.269531 134.785156 99.351562 134.785156 88.351562 C 134.785156 77.351562 125.867188 68.433594 114.867188 68.433594 Z M 114.867188 68.433594 " clip-rule="nonzero"/></clipPath><clipPath id="c611cdc49c"><path d="M 255.421875 70.683594 L 295.160156 70.683594 L 295.160156 110.417969 L 255.421875 110.417969 Z M 255.421875 70.683594 " clip-rule="nonzero"/></clipPath><clipPath id="e2da560076"><path d="M 275.292969 70.683594 C 264.320312 70.683594 255.421875 79.578125 255.421875 90.550781 C 255.421875 101.523438 264.320312 110.417969 275.292969 110.417969 C 286.265625 110.417969 295.160156 101.523438 295.160156 90.550781 C 295.160156 79.578125 286.265625 70.683594 275.292969 70.683594 Z M 275.292969 70.683594 " clip-rule="nonzero"/></clipPath></defs><g fill="#600aed" fill-opacity="1"><g transform="translate(67.738326, 127.440477)"><g><path d="M 13.703125 -9.15625 C 6.773438 -16.707031 3.3125 -25.960938 3.3125 -36.921875 C 3.3125 -47.890625 6.773438 -57.171875 13.703125 -64.765625 C 20.628906 -72.367188 29.429688 -76.171875 40.109375 -76.171875 C 49.921875 -76.171875 58 -73.09375 64.34375 -66.9375 L 64.34375 -74.015625 L 89.875 -74.015625 L 89.875 0 L 64.625 0 L 64.625 -8.375 L 64.34375 -8.375 C 58 -1.351562 49.921875 2.15625 40.109375 2.15625 C 29.429688 2.15625 20.628906 -1.613281 13.703125 -9.15625 Z M 35.40625 -49.484375 C 32.09375 -46.210938 30.4375 -42.023438 30.4375 -36.921875 C 30.4375 -31.828125 32.023438 -27.671875 35.203125 -24.453125 C 38.378906 -21.234375 42.5625 -19.625 47.75 -19.625 C 52.75 -19.625 56.859375 -21.257812 60.078125 -24.53125 C 63.304688 -27.800781 64.921875 -31.9375 64.921875 -36.9375 C 64.921875 -42.03125 63.257812 -46.210938 59.9375 -49.484375 C 56.625 -52.753906 52.5625 -54.390625 47.75 -54.390625 C 42.84375 -54.390625 38.726562 -52.753906 35.40625 -49.484375 Z M 35.40625 -49.484375 "/></g></g></g><g fill="#600aed" fill-opacity="1"><g transform="translate(152.690829, 127.440477)"><g><path d="M 64.78125 -74.015625 L 94.203125 -74.015625 L 36.0625 37.515625 L 6.640625 37.515625 L 32.171875 -11.546875 L -2.890625 -74.015625 L 26.546875 -74.015625 L 47.171875 -36.0625 Z M 64.78125 -74.015625 "/></g></g></g><g fill="#600aed" fill-opacity="1"><g transform="translate(230.431406, 127.440477)"><g><path d="M 13.703125 -9.15625 C 6.773438 -16.707031 3.3125 -25.960938 3.3125 -36.921875 C 3.3125 -47.890625 6.773438 -57.171875 13.703125 -64.765625 C 20.628906 -72.367188 29.429688 -76.171875 40.109375 -76.171875 C 49.921875 -76.171875 58 -73.09375 64.34375 -66.9375 L 64.34375 -74.015625 L 89.875 -74.015625 L 89.875 0 L 64.625 0 L 64.625 -8.375 L 64.34375 -8.375 C 58 -1.351562 49.921875 2.15625 40.109375 2.15625 C 29.429688 2.15625 20.628906 -1.613281 13.703125 -9.15625 Z M 35.40625 -49.484375 C 32.09375 -46.210938 30.4375 -42.023438 30.4375 -36.921875 C 30.4375 -31.828125 32.023438 -27.671875 35.203125 -24.453125 C 38.378906 -21.234375 42.5625 -19.625 47.75 -19.625 C 52.75 -19.625 56.859375 -21.257812 60.078125 -24.53125 C 63.304688 -27.800781 64.921875 -31.9375 64.921875 -36.9375 C 64.921875 -42.03125 63.257812 -46.210938 59.9375 -49.484375 C 56.625 -52.753906 52.5625 -54.390625 47.75 -54.390625 C 42.84375 -54.390625 38.726562 -52.753906 35.40625 -49.484375 Z M 35.40625 -49.484375 "/></g></g></g><g fill="#6a0fff" fill-opacity="1"><g transform="translate(315.409683, 127.440477)"><g><path d="M 8.65625 0 L 8.65625 -74.015625 L 34.1875 -74.015625 L 34.1875 -66.21875 L 34.484375 -66.21875 C 41.117188 -72.851562 48.1875 -76.171875 55.6875 -76.171875 C 61.070312 -76.171875 66.117188 -75.0625 70.828125 -72.84375 C 75.546875 -70.632812 79.109375 -67.222656 81.515625 -62.609375 C 89.015625 -71.648438 97.1875 -76.171875 106.03125 -76.171875 C 113.914062 -76.171875 120.695312 -73.957031 126.375 -69.53125 C 132.050781 -65.113281 134.890625 -58.191406 134.890625 -48.765625 L 134.890625 0 L 109.359375 0 L 109.359375 -41.84375 C 109.359375 -45.78125 108.273438 -49.070312 106.109375 -51.71875 C 103.941406 -54.363281 100.695312 -55.6875 96.375 -55.6875 C 92.625 -55.6875 89.757812 -54.554688 87.78125 -52.296875 C 85.8125 -50.035156 84.734375 -47.316406 84.546875 -44.140625 L 84.546875 0 L 59 0 L 59 -41.84375 C 59 -45.78125 57.914062 -49.070312 55.75 -51.71875 C 53.59375 -54.363281 50.347656 -55.6875 46.015625 -55.6875 C 42.078125 -55.6875 39.117188 -54.457031 37.140625 -52 C 35.171875 -49.550781 34.1875 -46.644531 34.1875 -43.28125 L 34.1875 0 Z M 8.65625 0 "/></g></g></g><g fill="#f4d11c" fill-opacity="1"><g transform="translate(443.933356, 127.440477)"><g><path d="M 52.515625 -121.1875 C 58.953125 -121.1875 65.25 -120.25 71.40625 -118.375 C 77.5625 -116.5 82.128906 -114.644531 85.109375 -112.8125 L 89.4375 -109.9375 L 78.484375 -88.296875 C 77.617188 -88.867188 76.414062 -89.609375 74.875 -90.515625 C 73.332031 -91.429688 70.445312 -92.660156 66.21875 -94.203125 C 61.988281 -95.742188 58.046875 -96.515625 54.390625 -96.515625 C 49.867188 -96.515625 46.378906 -95.550781 43.921875 -93.625 C 41.472656 -91.707031 40.25 -89.113281 40.25 -85.84375 C 40.25 -84.207031 40.828125 -82.691406 41.984375 -81.296875 C 43.140625 -79.898438 45.109375 -78.40625 47.890625 -76.8125 C 50.679688 -75.226562 53.132812 -73.957031 55.25 -73 C 57.363281 -72.039062 60.632812 -70.597656 65.0625 -68.671875 C 72.757812 -65.398438 79.320312 -60.953125 84.75 -55.328125 C 90.1875 -49.703125 92.90625 -43.328125 92.90625 -36.203125 C 92.90625 -29.378906 91.675781 -23.414062 89.21875 -18.3125 C 86.769531 -13.21875 83.40625 -9.226562 79.125 -6.34375 C 74.84375 -3.457031 70.101562 -1.320312 64.90625 0.0625 C 59.71875 1.457031 54.097656 2.15625 48.046875 2.15625 C 42.847656 2.15625 37.75 1.625 32.75 0.5625 C 27.75 -0.488281 23.5625 -1.804688 20.1875 -3.390625 C 16.820312 -4.972656 13.789062 -6.535156 11.09375 -8.078125 C 8.40625 -9.617188 6.4375 -10.914062 5.1875 -11.96875 L 3.3125 -13.5625 L 16.875 -36.359375 C 18.03125 -35.390625 19.617188 -34.160156 21.640625 -32.671875 C 23.660156 -31.179688 27.242188 -29.1875 32.390625 -26.6875 C 37.535156 -24.1875 42.078125 -22.9375 46.015625 -22.9375 C 57.460938 -22.9375 63.1875 -26.832031 63.1875 -34.625 C 63.1875 -36.257812 62.773438 -37.773438 61.953125 -39.171875 C 61.140625 -40.566406 59.695312 -41.957031 57.625 -43.34375 C 55.5625 -44.738281 53.734375 -45.84375 52.140625 -46.65625 C 50.554688 -47.476562 47.960938 -48.734375 44.359375 -50.421875 C 40.753906 -52.109375 38.085938 -53.382812 36.359375 -54.25 C 29.140625 -57.800781 23.554688 -62.242188 19.609375 -67.578125 C 15.671875 -72.921875 13.703125 -78.671875 13.703125 -84.828125 C 13.703125 -95.503906 17.644531 -104.234375 25.53125 -111.015625 C 33.414062 -117.796875 42.410156 -121.1875 52.515625 -121.1875 Z M 52.515625 -121.1875 "/></g></g></g><g fill="#d49b09" fill-opacity="1"><g transform="translate(527.326831, 127.440477)"><g><path d="M 12.984375 -74.015625 L 12.984375 -101.5625 L 38.515625 -101.5625 L 38.515625 -74.015625 L 54.09375 -74.015625 L 54.09375 -54.53125 L 38.515625 -54.53125 L 38.515625 -31.015625 C 38.515625 -24.191406 40.441406 -20.78125 44.296875 -20.78125 C 45.253906 -20.78125 46.257812 -20.96875 47.3125 -21.34375 C 48.375 -21.726562 49.191406 -22.113281 49.765625 -22.5 L 50.640625 -23.078125 L 56.984375 -2.453125 C 51.503906 0.617188 45.253906 2.15625 38.234375 2.15625 C 33.421875 2.15625 29.28125 1.316406 25.8125 -0.359375 C 22.351562 -2.046875 19.734375 -4.304688 17.953125 -7.140625 C 16.179688 -9.972656 14.910156 -12.953125 14.140625 -16.078125 C 13.367188 -19.210938 12.984375 -22.554688 12.984375 -26.109375 L 12.984375 -54.53125 L 2.3125 -54.53125 L 2.3125 -74.015625 Z M 12.984375 -74.015625 "/></g></g></g><g fill="#d49b09" fill-opacity="1"><g transform="translate(570.738638, 127.440477)"><g><path d="M 32.75 -74.015625 L 32.75 -38.8125 C 32.75 -31.5 33.851562 -26.300781 36.0625 -23.21875 C 38.28125 -20.144531 42.03125 -18.609375 47.3125 -18.609375 C 52.601562 -18.609375 56.351562 -20.144531 58.5625 -23.21875 C 60.78125 -26.300781 61.890625 -31.5 61.890625 -38.8125 L 61.890625 -74.015625 L 87.421875 -74.015625 L 87.421875 -32.609375 C 87.421875 -20.296875 84.222656 -11.421875 77.828125 -5.984375 C 71.429688 -0.554688 61.257812 2.15625 47.3125 2.15625 C 33.375 2.15625 23.207031 -0.554688 16.8125 -5.984375 C 10.414062 -11.421875 7.21875 -20.296875 7.21875 -32.609375 L 7.21875 -74.015625 Z M 32.75 -74.015625 "/></g></g></g><g fill="#d49b09" fill-opacity="1"><g transform="translate(651.796707, 127.440477)"><g><path d="M 13.703125 -9.15625 C 6.773438 -16.707031 3.3125 -25.960938 3.3125 -36.921875 C 3.3125 -47.890625 6.773438 -57.171875 13.703125 -64.765625 C 20.628906 -72.367188 29.429688 -76.171875 40.109375 -76.171875 C 49.921875 -76.171875 58 -73.09375 64.34375 -66.9375 L 64.34375 -124.0625 L 89.875 -124.0625 L 89.875 0 L 64.625 0 L 64.625 -8.375 L 64.34375 -8.375 C 58 -1.351562 49.921875 2.15625 40.109375 2.15625 C 29.429688 2.15625 20.628906 -1.613281 13.703125 -9.15625 Z M 35.40625 -49.484375 C 32.09375 -46.210938 30.4375 -42.023438 30.4375 -36.921875 C 30.4375 -31.828125 32.023438 -27.671875 35.203125 -24.453125 C 38.378906 -21.234375 42.5625 -19.625 47.75 -19.625 C 52.75 -19.625 56.859375 -21.257812 60.078125 -24.53125 C 63.304688 -27.800781 64.921875 -31.9375 64.921875 -36.9375 C 64.921875 -42.03125 63.257812 -46.210938 59.9375 -49.484375 C 56.625 -52.753906 52.5625 -54.390625 47.75 -54.390625 C 42.84375 -54.390625 38.726562 -52.753906 35.40625 -49.484375 Z M 35.40625 -49.484375 "/></g></g></g><g fill="#d49b09" fill-opacity="1"><g transform="translate(736.749209, 127.440477)"><g><path d="M 11.109375 -115.265625 C 14.085938 -118.242188 17.644531 -119.734375 21.78125 -119.734375 C 25.914062 -119.734375 29.472656 -118.242188 32.453125 -115.265625 C 35.441406 -112.285156 36.9375 -108.726562 36.9375 -104.59375 C 36.9375 -100.457031 35.441406 -96.894531 32.453125 -93.90625 C 29.472656 -90.925781 25.914062 -89.4375 21.78125 -89.4375 C 17.644531 -89.4375 14.085938 -90.925781 11.109375 -93.90625 C 8.128906 -96.894531 6.640625 -100.457031 6.640625 -104.59375 C 6.640625 -108.726562 8.128906 -112.285156 11.109375 -115.265625 Z M 8.65625 -74.015625 L 8.65625 0 L 34.1875 0 L 34.1875 -74.015625 Z M 8.65625 -74.015625 "/></g></g></g><g fill="#d49b09" fill-opacity="1"><g transform="translate(766.746869, 127.440477)"><g><path d="M 15.640625 -8.796875 C 7.421875 -16.109375 3.3125 -25.484375 3.3125 -36.921875 C 3.3125 -48.367188 7.59375 -57.769531 16.15625 -65.125 C 24.71875 -72.488281 35.296875 -76.171875 47.890625 -76.171875 C 60.296875 -76.171875 70.753906 -72.46875 79.265625 -65.0625 C 87.785156 -57.65625 92.046875 -48.273438 92.046875 -36.921875 C 92.046875 -25.578125 87.882812 -16.226562 79.5625 -8.875 C 71.238281 -1.519531 60.679688 2.15625 47.890625 2.15625 C 34.617188 2.15625 23.867188 -1.492188 15.640625 -8.796875 Z M 35.40625 -49.484375 C 32.09375 -46.210938 30.4375 -42.023438 30.4375 -36.921875 C 30.4375 -31.828125 32.023438 -27.671875 35.203125 -24.453125 C 38.378906 -21.234375 42.5625 -19.625 47.75 -19.625 C 52.75 -19.625 56.859375 -21.257812 60.078125 -24.53125 C 63.304688 -27.800781 64.921875 -31.9375 64.921875 -36.9375 C 64.921875 -42.03125 63.257812 -46.210938 59.9375 -49.484375 C 56.625 -52.753906 52.5625 -54.390625 47.75 -54.390625 C 42.84375 -54.390625 38.726562 -52.753906 35.40625 -49.484375 Z M 35.40625 -49.484375 "/></g></g></g><g fill="#600aed" fill-opacity="1"><g transform="translate(848.553478, 127.440477)"><g><path d="M 25.109375 -30.875 C 29.722656 -30.875 33.640625 -29.257812 36.859375 -26.03125 C 40.078125 -22.8125 41.6875 -18.894531 41.6875 -14.28125 C 41.6875 -9.757812 40.078125 -5.890625 36.859375 -2.671875 C 33.640625 0.546875 29.722656 2.15625 25.109375 2.15625 C 20.585938 2.15625 16.710938 0.546875 13.484375 -2.671875 C 10.265625 -5.890625 8.65625 -9.757812 8.65625 -14.28125 C 8.65625 -18.894531 10.265625 -22.8125 13.484375 -26.03125 C 16.710938 -29.257812 20.585938 -30.875 25.109375 -30.875 Z M 25.109375 -30.875 "/></g></g></g><g clip-path="url(#4da281b3d3)"><g clip-path="url(#293706aa79)"><path fill="#600aed" d="M 741.699219 2.417969 L 779.234375 2.417969 L 779.234375 39.953125 L 741.699219 39.953125 Z M 741.699219 2.417969 " fill-opacity="1" fill-rule="nonzero"/></g></g><g clip-path="url(#5f4aa8d30f)"><g clip-path="url(#3d31669760)"><path fill="#d49b09" d="M 94.953125 68.433594 L 134.785156 68.433594 L 134.785156 108.269531 L 94.953125 108.269531 Z M 94.953125 68.433594 " fill-opacity="1" fill-rule="nonzero"/></g></g><g clip-path="url(#c611cdc49c)"><g clip-path="url(#e2da560076)"><path fill="#f4d11c" d="M 255.421875 70.683594 L 295.160156 70.683594 L 295.160156 110.417969 L 255.421875 110.417969 Z M 255.421875 70.683594 " fill-opacity="1" fill-rule="nonzero"/></g></g></svg>